<mxfile host="65bd71144e">
    <diagram id="LVohE4EugwEtNsh7rLs2" name="Page-1">
        <mxGraphModel dx="1314" dy="1001" grid="1" gridSize="10" guides="1" tooltips="1" connect="1" arrows="1" fold="1" page="1" pageScale="1" pageWidth="1600" pageHeight="900" math="0" shadow="0">
            <root>
                <mxCell id="0"/>
                <mxCell id="1" parent="0"/>
                <mxCell id="2" value="" style="group;fontSize=20;" parent="1" vertex="1" connectable="0">
                    <mxGeometry x="200" y="60" width="998.54" height="820" as="geometry"/>
                </mxCell>
                <mxCell id="3" style="edgeStyle=none;html=1;fontSize=20;" parent="2" source="4" edge="1">
                    <mxGeometry relative="1" as="geometry">
                        <mxPoint x="290.9652980132451" y="238.06451612903228" as="targetPoint"/>
                    </mxGeometry>
                </mxCell>
                <mxCell id="4" value="result" style="whiteSpace=wrap;html=1;strokeColor=#F0F0F0;strokeWidth=5;fontSize=20;" parent="2" vertex="1">
                    <mxGeometry x="634.8333774834437" width="158.7083443708609" height="79.35483870967742" as="geometry"/>
                </mxCell>
                <mxCell id="5" value="" style="group;fontSize=20;" parent="2" vertex="1" connectable="0">
                    <mxGeometry y="125.64516129032259" width="998.5400000000001" height="694.3548387096774" as="geometry"/>
                </mxCell>
                <mxCell id="6" value="details_selling" style="whiteSpace=wrap;html=1;strokeColor=#F0F0F0;strokeWidth=5;fontSize=20;" parent="5" vertex="1">
                    <mxGeometry x="214.25626490066225" y="125.64516129032259" width="158.7083443708609" height="79.35483870967742" as="geometry"/>
                </mxCell>
                <mxCell id="7" value="shop" style="whiteSpace=wrap;html=1;strokeColor=#F0F0F0;strokeWidth=5;fontSize=20;" parent="5" vertex="1">
                    <mxGeometry y="125.64516129032259" width="158.7083443708609" height="79.35483870967742" as="geometry"/>
                </mxCell>
                <mxCell id="8" value="" style="edgeStyle=none;html=1;fontSize=20;" parent="5" source="6" target="7" edge="1">
                    <mxGeometry relative="1" as="geometry"/>
                </mxCell>
                <mxCell id="37" style="edgeStyle=none;html=1;entryX=1;entryY=0.5;entryDx=0;entryDy=0;fontSize=20;" edge="1" parent="5" source="9" target="34">
                    <mxGeometry relative="1" as="geometry"/>
                </mxCell>
                <mxCell id="9" value="detail_pre" style="whiteSpace=wrap;html=1;strokeColor=#F0F0F0;strokeWidth=5;fontSize=20;" parent="5" vertex="1">
                    <mxGeometry x="634.8333774834437" y="370.32258064516134" width="158.7083443708609" height="79.35483870967742" as="geometry"/>
                </mxCell>
                <mxCell id="10" value="shop" style="whiteSpace=wrap;html=1;strokeColor=#F0F0F0;strokeWidth=5;fontSize=20;" parent="5" vertex="1">
                    <mxGeometry x="634.8333774834437" y="493.3225806451614" width="158.7083443708609" height="79.35483870967742" as="geometry"/>
                </mxCell>
                <mxCell id="11" value="" style="edgeStyle=none;html=1;fontSize=20;" parent="5" source="9" target="10" edge="1">
                    <mxGeometry relative="1" as="geometry"/>
                </mxCell>
                <mxCell id="12" value="" style="edgeStyle=none;html=1;fontSize=20;" parent="5" source="13" target="6" edge="1">
                    <mxGeometry relative="1" as="geometry"/>
                </mxCell>
                <mxCell id="13" value="recommand" style="whiteSpace=wrap;html=1;strokeColor=#F0F0F0;strokeWidth=5;fontSize=20;" parent="5" vertex="1">
                    <mxGeometry x="424.54482119205295" y="125.64516129032259" width="158.7083443708609" height="79.35483870967742" as="geometry"/>
                </mxCell>
                <mxCell id="14" value="seasons hot" style="whiteSpace=wrap;html=1;strokeColor=#F0F0F0;strokeWidth=5;fontSize=20;" parent="5" vertex="1">
                    <mxGeometry x="839.831655629139" y="125.64516129032259" width="158.7083443708609" height="79.35483870967742" as="geometry"/>
                </mxCell>
                <mxCell id="15" value="" style="edgeStyle=none;html=1;fontSize=20;" parent="5" source="17" target="14" edge="1">
                    <mxGeometry relative="1" as="geometry"/>
                </mxCell>
                <mxCell id="16" value="" style="edgeStyle=none;html=1;fontSize=20;" parent="5" source="17" target="13" edge="1">
                    <mxGeometry relative="1" as="geometry"/>
                </mxCell>
                <mxCell id="17" value="Home" style="whiteSpace=wrap;html=1;strokeColor=#F0F0F0;strokeWidth=5;fontSize=20;" parent="5" vertex="1">
                    <mxGeometry x="633.51080794702" y="123.00000000000001" width="158.7083443708609" height="79.35483870967742" as="geometry"/>
                </mxCell>
                <mxCell id="18" value="type" style="whiteSpace=wrap;html=1;strokeColor=#F0F0F0;strokeWidth=5;fontSize=20;" parent="5" vertex="1">
                    <mxGeometry x="634.8333774834437" width="158.7083443708609" height="79.35483870967742" as="geometry"/>
                </mxCell>
                <mxCell id="19" value="" style="edgeStyle=none;html=1;fontSize=20;" parent="5" source="17" target="18" edge="1">
                    <mxGeometry relative="1" as="geometry"/>
                </mxCell>
                <mxCell id="20" value="" style="edgeStyle=none;html=1;fontSize=20;" parent="5" source="21" target="9" edge="1">
                    <mxGeometry relative="1" as="geometry"/>
                </mxCell>
                <mxCell id="21" value="incoming" style="whiteSpace=wrap;html=1;strokeColor=#F0F0F0;strokeWidth=5;fontSize=20;" parent="5" vertex="1">
                    <mxGeometry x="634.8333774834437" y="246.00000000000006" width="158.7083443708609" height="79.35483870967742" as="geometry"/>
                </mxCell>
                <mxCell id="22" value="" style="edgeStyle=none;html=1;fontSize=20;" parent="5" source="17" target="21" edge="1">
                    <mxGeometry relative="1" as="geometry"/>
                </mxCell>
                <mxCell id="23" value="comment" style="whiteSpace=wrap;html=1;strokeColor=#F0F0F0;strokeWidth=5;fontSize=20;" parent="5" vertex="1">
                    <mxGeometry x="634.8333774834437" y="615" width="158.7083443708609" height="79.35483870967742" as="geometry"/>
                </mxCell>
                <mxCell id="24" value="" style="edgeStyle=none;html=1;fontSize=20;" parent="5" source="10" target="23" edge="1">
                    <mxGeometry relative="1" as="geometry"/>
                </mxCell>
                <mxCell id="25" value="pre-buy" style="whiteSpace=wrap;html=1;strokeColor=#F0F0F0;strokeWidth=5;fontSize=20;" parent="5" vertex="1">
                    <mxGeometry x="839.831655629139" y="495.9677419354839" width="158.7083443708609" height="79.35483870967742" as="geometry"/>
                </mxCell>
                <mxCell id="26" style="edgeStyle=none;html=1;exitX=1;exitY=0.5;exitDx=0;exitDy=0;entryX=0.5;entryY=0;entryDx=0;entryDy=0;fontSize=20;" parent="5" source="9" target="25" edge="1">
                    <mxGeometry relative="1" as="geometry"/>
                </mxCell>
                <mxCell id="27" value="comment" style="whiteSpace=wrap;html=1;strokeColor=#F0F0F0;strokeWidth=5;fontSize=20;" parent="5" vertex="1">
                    <mxGeometry y="252.61290322580646" width="158.7083443708609" height="79.35483870967742" as="geometry"/>
                </mxCell>
                <mxCell id="28" value="" style="edgeStyle=none;html=1;fontSize=20;" parent="5" source="7" target="27" edge="1">
                    <mxGeometry relative="1" as="geometry"/>
                </mxCell>
                <mxCell id="29" value="accept-nofication" style="whiteSpace=wrap;html=1;strokeColor=#F0F0F0;strokeWidth=5;fontSize=20;" parent="5" vertex="1">
                    <mxGeometry x="839.831655629139" y="615" width="158.7083443708609" height="79.35483870967742" as="geometry"/>
                </mxCell>
                <mxCell id="30" value="" style="edgeStyle=none;html=1;fontSize=20;" parent="5" source="25" target="29" edge="1">
                    <mxGeometry relative="1" as="geometry"/>
                </mxCell>
                <mxCell id="31" value="&lt;font style=&quot;font-size: 20px;&quot;&gt;details_selling:game details with storage&lt;br style=&quot;font-size: 20px;&quot;&gt;detail_pre:game detail with number of per buyer&lt;/font&gt;" style="ellipse;whiteSpace=wrap;html=1;strokeColor=#F0F0F0;strokeWidth=5;fontSize=20;" parent="5" vertex="1">
                    <mxGeometry x="19.99771275446255" y="474.3569439728354" width="447.761269827549" height="205" as="geometry"/>
                </mxCell>
                <mxCell id="34" value="Follow" style="whiteSpace=wrap;html=1;strokeColor=#F0F0F0;strokeWidth=5;fontSize=20;" vertex="1" parent="5">
                    <mxGeometry x="214.26" y="370.32483870967746" width="155.74" height="79.35" as="geometry"/>
                </mxCell>
                <mxCell id="35" value="" style="edgeStyle=none;html=1;fontSize=20;" edge="1" parent="5" source="6" target="34">
                    <mxGeometry relative="1" as="geometry"/>
                </mxCell>
                <mxCell id="32" value="" style="edgeStyle=none;html=1;fontSize=20;" parent="2" source="18" target="4" edge="1">
                    <mxGeometry relative="1" as="geometry"/>
                </mxCell>
                <mxCell id="33" style="edgeStyle=none;html=1;fontSize=20;" parent="1" source="14" edge="1">
                    <mxGeometry relative="1" as="geometry">
                        <mxPoint x="979" y="80" as="targetPoint"/>
                    </mxGeometry>
                </mxCell>
                <mxCell id="38" value="" style="edgeStyle=none;orthogonalLoop=1;jettySize=auto;html=1;exitX=1;exitY=0;exitDx=0;exitDy=0;entryX=1;entryY=0;entryDx=0;entryDy=0;fontSize=20;" edge="1" parent="1" target="34">
                    <mxGeometry width="80" relative="1" as="geometry">
                        <mxPoint x="810" y="370" as="sourcePoint"/>
                        <mxPoint x="560" y="520" as="targetPoint"/>
                        <Array as="points"/>
                    </mxGeometry>
                </mxCell>
            </root>
        </mxGraphModel>
    </diagram>
</mxfile>